<svg width="16" height="16" viewBox="0 0 16 16" fill="none" xmlns="http://www.w3.org/2000/svg">
<path d="M10.3377 2.9714C8.86745 1.72045 7.30531 0.654825 5.51344 0.19151C4.54859 -0.0401478 3.53779 -0.0864792 2.57294 0.19151C1.74592 0.423168 0.781071 0.932816 0.505399 1.99844C0.137836 3.34205 1.14863 4.593 2.02159 5.38064C2.89456 6.16828 3.90535 6.72425 4.96209 6.90958C4.96209 6.63159 1.74592 7.92887 0.78107 9.64314C0.321617 10.4308 0 11.3574 0 12.3304C0 13.3033 0.321617 14.2763 0.964852 14.9249C2.25132 16.2222 4.18102 16.1295 5.65127 15.7589C7.53503 15.2492 9.28096 14.1836 10.935 13.0717C12.7269 11.8207 14.3809 10.3844 15.8511 8.71651C15.989 8.53118 16.0809 8.29952 15.8971 8.06786C15.8052 7.92887 12.1755 4.63934 10.2918 3.06406" fill="#000D77"/>
</svg>
