<svg width="17" height="18" viewBox="0 0 17 18" fill="none" xmlns="http://www.w3.org/2000/svg">
<mask id="path-1-outside-1_517_1953" maskUnits="userSpaceOnUse" x="-0.866025" y="-0.562192" width="19.1244" height="19.1244" fill="black">
<rect fill="white" x="-0.866025" y="-0.562192" width="19.1244" height="19.1244"/>
<path d="M12.839 8.63264C13.1001 7.20858 13.2065 5.79433 12.8355 4.45673C12.6241 3.74317 12.2751 3.06927 11.7328 2.54682C11.2722 2.09653 10.5793 1.66096 9.7838 1.88151C8.77327 2.14663 8.3398 3.27227 8.15557 4.13464C7.97135 4.99701 7.98928 5.86203 8.26519 6.6179C8.44575 6.51365 6.39707 4.91117 4.92181 4.92733C4.23793 4.92427 3.51546 5.06286 2.8835 5.42772C2.25154 5.79258 1.74019 6.36634 1.5601 7.02737C1.19992 8.34944 1.98374 9.56807 2.77583 10.384C3.81326 11.4164 5.16013 12.1508 6.50263 12.8082C7.98709 13.5029 9.54025 14.0387 11.1749 14.3681C11.347 14.3882 11.5319 14.361 11.6135 14.1547C11.6693 14.0429 12.4448 10.4518 12.7615 8.63755"/>
</mask>
<path d="M12.839 8.63264C13.1001 7.20858 13.2065 5.79433 12.8355 4.45673C12.6241 3.74317 12.2751 3.06927 11.7328 2.54682C11.2722 2.09653 10.5793 1.66096 9.7838 1.88151C8.77327 2.14663 8.3398 3.27227 8.15557 4.13464C7.97135 4.99701 7.98928 5.86203 8.26519 6.6179C8.44575 6.51365 6.39707 4.91117 4.92181 4.92733C4.23793 4.92427 3.51546 5.06286 2.8835 5.42772C2.25154 5.79258 1.74019 6.36634 1.5601 7.02737C1.19992 8.34944 1.98374 9.56807 2.77583 10.384C3.81326 11.4164 5.16013 12.1508 6.50263 12.8082C7.98709 13.5029 9.54025 14.0387 11.1749 14.3681C11.347 14.3882 11.5319 14.361 11.6135 14.1547C11.6693 14.0429 12.4448 10.4518 12.7615 8.63755" fill="#E60040"/>
<path d="M12.8355 4.45673L13.7991 4.18945L13.7967 4.18107L13.7943 4.17273L12.8355 4.45673ZM11.7328 2.54682L11.0337 3.2619L11.039 3.26704L11.7328 2.54682ZM9.7838 1.88151L10.0376 2.84887L10.051 2.84516L9.7838 1.88151ZM8.26519 6.6179L7.32581 6.96079L7.73407 8.07924L8.76519 7.48392L8.26519 6.6179ZM4.92181 4.92733L4.91733 5.92732L4.92504 5.92735L4.93276 5.92727L4.92181 4.92733ZM2.77583 10.384L2.0583 11.0806L2.06432 11.0868L2.07044 11.0928L2.77583 10.384ZM6.50263 12.8082L6.06287 13.7063L6.07077 13.7102L6.07874 13.7139L6.50263 12.8082ZM11.1749 14.3681L10.9774 15.3484L11.0181 15.3566L11.0593 15.3614L11.1749 14.3681ZM11.6135 14.1547L10.7188 13.7081L10.6994 13.7468L10.6835 13.787L11.6135 14.1547ZM13.8226 8.81303C14.0934 7.33647 14.2304 5.74445 13.7991 4.18945L11.8718 4.72402C12.1826 5.84421 12.1069 7.08069 11.8554 8.45225L13.8226 8.81303ZM13.7943 4.17273C13.548 3.34137 13.1252 2.49964 12.4265 1.8266L11.039 3.26704C11.4251 3.63889 11.7002 4.14497 11.8766 4.74073L13.7943 4.17273ZM12.4318 1.83176C11.8927 1.30474 10.8405 0.550822 9.51664 0.917864L10.051 2.84516C10.3181 2.7711 10.6516 2.88832 11.0337 3.26188L12.4318 1.83176ZM9.53004 0.914248C8.69737 1.1327 8.15032 1.69926 7.80619 2.26323C7.46669 2.81961 7.28182 3.43806 7.17764 3.92573L9.13351 4.34355C9.21355 3.96885 9.33753 3.59329 9.51345 3.30499C9.68475 3.02426 9.8597 2.89544 10.0376 2.84878L9.53004 0.914248ZM7.17764 3.92573C6.96382 4.92664 6.97118 5.98925 7.32581 6.96079L9.20456 6.27501C9.00738 5.73481 8.97888 5.06737 9.13351 4.34355L7.17764 3.92573ZM8.76519 7.48392C9.00741 7.34408 9.18706 7.10794 9.25114 6.82396C9.30576 6.58195 9.2593 6.38335 9.22823 6.28375C9.16825 6.09148 9.06473 5.95433 9.02462 5.90252C8.92282 5.77101 8.79366 5.64927 8.68183 5.55223C8.44274 5.34474 8.11081 5.10316 7.73564 4.87403C7.02761 4.44162 5.94305 3.91608 4.91085 3.92739L4.93276 5.92727C5.37582 5.92242 6.05324 6.19004 6.69322 6.58089C6.99206 6.7634 7.23065 6.94097 7.371 7.06277C7.44889 7.13036 7.4617 7.15079 7.44313 7.12681C7.43593 7.11751 7.41955 7.09565 7.40003 7.06283C7.38271 7.03371 7.34729 6.97011 7.31898 6.87937C7.29335 6.79722 7.24833 6.61354 7.3002 6.3837C7.36154 6.1119 7.53425 5.88521 7.76519 5.75187L8.76519 7.48392ZM4.92628 3.92734C4.11234 3.9237 3.20492 4.08745 2.3835 4.56169L3.3835 6.29375C3.82599 6.03827 4.36352 5.92484 4.91733 5.92732L4.92628 3.92734ZM2.3835 4.56169C1.58169 5.02462 0.860645 5.79042 0.595265 6.76451L2.52493 7.29023C2.61974 6.94225 2.9214 6.56054 3.3835 6.29375L2.3835 4.56169ZM0.595265 6.76451C0.0870057 8.6301 1.21393 10.2107 2.0583 11.0806L3.49335 9.6875C2.75355 8.92539 2.31283 8.06878 2.52493 7.29023L0.595265 6.76451ZM2.07044 11.0928C3.23387 12.2507 4.71191 13.0448 6.06287 13.7063L6.94238 11.9101C5.60835 11.2569 4.39266 10.5822 3.48122 9.67521L2.07044 11.0928ZM6.07874 13.7139C7.62741 14.4387 9.25632 15.0015 10.9774 15.3484L11.3725 13.3879C9.82417 13.0758 8.34678 12.5672 6.92651 11.9025L6.07874 13.7139ZM11.0593 15.3614C11.2193 15.3801 11.4941 15.3927 11.7882 15.2792C12.1268 15.1486 12.4 14.8852 12.5434 14.5224L10.6835 13.787C10.7089 13.7228 10.7547 13.6431 10.8305 13.5679C10.9064 13.4927 10.9909 13.4431 11.0681 13.4133C11.1418 13.3849 11.2019 13.377 11.2357 13.3746C11.2695 13.3723 11.2894 13.3747 11.2906 13.3748L11.0593 15.3614ZM12.5082 14.6014C12.5522 14.5132 12.5762 14.4295 12.5766 14.4281C12.5848 14.4015 12.5921 14.3752 12.5979 14.3534C12.6099 14.3087 12.6236 14.2541 12.6379 14.1948C12.6669 14.0747 12.7044 13.9122 12.7476 13.7197C12.8343 13.3337 12.9473 12.8133 13.0681 12.2412C13.309 11.1002 13.5851 9.73475 13.7466 8.80954L11.7764 8.46556C11.6212 9.35461 11.3512 10.6918 11.1112 11.8279C10.9916 12.3944 10.8805 12.9061 10.7962 13.2815C10.7539 13.4698 10.7191 13.6204 10.6938 13.7251C10.681 13.7783 10.6719 13.8141 10.6662 13.8352C10.6633 13.8463 10.663 13.8466 10.6649 13.8404C10.6659 13.8374 10.6692 13.8267 10.6745 13.8117C10.6772 13.804 10.6922 13.7613 10.7188 13.7081L12.5082 14.6014Z" fill="#E60040" mask="url(#path-1-outside-1_517_1953)"/>
</svg>
