<svg width="25" height="24" viewBox="0 0 25 24" fill="none" xmlns="http://www.w3.org/2000/svg">
<g id="icon/link-forward">
<path id="Vector" d="M20.0841 9.44118L18.1188 7.46899C16.7027 6.04799 16.1477 5.28357 15.3809 5.55381C14.4248 5.89077 14.7395 8.01692 14.7395 8.73471C13.253 8.73471 11.7075 8.60259 10.2422 8.87787C5.40492 9.78664 3.89233 13.7153 3.89233 18C5.26143 17.0302 6.62916 15.997 8.27466 15.5476C10.3287 14.9865 12.6227 15.2542 14.7395 15.2542C14.7395 15.972 14.4248 18.0982 15.3809 18.4351C16.2498 18.7413 16.7027 17.9409 18.1188 16.5199L20.0841 14.5477C21.2896 13.338 21.8923 12.7332 21.8923 11.9945C21.8923 11.2558 21.2896 10.6509 20.0841 9.44118Z" fill="#E60040" stroke="#E60040" stroke-width="1.5" stroke-linecap="round" stroke-linejoin="round"/>
</g>
</svg>
