<svg width="24" height="25" viewBox="0 0 24 25" fill="none" xmlns="http://www.w3.org/2000/svg">
<path d="M19.1918 9.67995L17.2265 7.70776C15.8104 6.28676 15.2554 5.52234 14.4886 5.79258C13.5325 6.12954 13.8472 8.25569 13.8472 8.97348C12.3607 8.97348 10.8152 8.84136 9.34985 9.11664C4.51259 10.0254 3 13.9541 3 18.2388C4.3691 17.269 5.73683 16.2358 7.38233 15.7864C9.43637 15.2253 11.7304 15.493 13.8472 15.493C13.8472 16.2108 13.5325 18.337 14.4886 18.6739C15.3575 18.9801 15.8104 18.1797 17.2265 16.7587L19.1918 14.7865C20.3973 13.5768 21 12.972 21 12.2333C21 11.4946 20.3973 10.8897 19.1918 9.67995Z" stroke="#E60040" stroke-width="1.5" stroke-linecap="round" stroke-linejoin="round"/>
</svg>
